<svg width="40" height="40" viewBox="0 0 40 40" fill="none" xmlns="http://www.w3.org/2000/svg">
<g filter="url(#filter0_d_13_57)">
<path fill-rule="evenodd" clip-rule="evenodd" d="M4 16C4 7.16344 11.1634 0 20 0C28.8366 0 36 7.16344 36 16C36 24.8366 28.8366 32 20 32C11.1634 32 4 24.8366 4 16ZM20 8C24.4 8 28 11.6 28 16C28 20 25.1 23.4 21.1 24V18.3H23L23.4 16H21.2V14.5C21.2 13.9 21.5 13.3 22.5 13.3H23.5V11.3C23.5 11.3 22.6 11.1 21.7 11.1C19.9 11.1 18.7 12.2 18.7 14.2V16H16.7V18.3H18.7V23.9C14.9 23.3 12 20 12 16C12 11.6 15.6 8 20 8Z" fill="#C0B7E8"/>
</g>
<defs>
<filter id="filter0_d_13_57" x="0" y="0" width="40" height="40" filterUnits="userSpaceOnUse" color-interpolation-filters="sRGB">
<feFlood flood-opacity="0" result="BackgroundImageFix"/>
<feColorMatrix in="SourceAlpha" type="matrix" values="0 0 0 0 0 0 0 0 0 0 0 0 0 0 0 0 0 0 127 0" result="hardAlpha"/>
<feOffset dy="4"/>
<feGaussianBlur stdDeviation="2"/>
<feComposite in2="hardAlpha" operator="out"/>
<feColorMatrix type="matrix" values="0 0 0 0 0 0 0 0 0 0 0 0 0 0 0 0 0 0 0.25 0"/>
<feBlend mode="normal" in2="BackgroundImageFix" result="effect1_dropShadow_13_57"/>
<feBlend mode="normal" in="SourceGraphic" in2="effect1_dropShadow_13_57" result="shape"/>
</filter>
</defs>
</svg>
