<svg width="40" height="40" viewBox="0 0 40 40" fill="none" xmlns="http://www.w3.org/2000/svg">
<g filter="url(#filter0_d_13_56)">
<path d="M20 18.8C18.5 18.8 17.2 17.6 17.2 16C17.2 14.5 18.4 13.2 20 13.2C21.5 13.2 22.8 14.4 22.8 16C22.8 17.5 21.5 18.8 20 18.8Z" fill="#C0B7E8"/>
<path fill-rule="evenodd" clip-rule="evenodd" d="M23.4 9.2H16.6C15.8 9.3 15.4 9.4 15.1 9.5C14.7 9.6 14.4 9.8 14.1 10.1C13.8626 10.3374 13.7505 10.5748 13.6149 10.8617C13.5792 10.9373 13.5417 11.0166 13.5 11.1C13.4845 11.1464 13.4667 11.1952 13.4475 11.2475C13.3429 11.5333 13.2 11.9238 13.2 12.6V19.4C13.3 20.2 13.4 20.6 13.5 20.9C13.6 21.3 13.8 21.6 14.1 21.9C14.3374 22.1374 14.5748 22.2495 14.8617 22.3851C14.9374 22.4209 15.0165 22.4583 15.1 22.5C15.1464 22.5155 15.1952 22.5333 15.2475 22.5525C15.5333 22.6571 15.9238 22.8 16.6 22.8H23.4C24.2 22.7 24.6 22.6 24.9 22.5C25.3 22.4 25.6 22.2 25.9 21.9C26.1374 21.6626 26.2495 21.4252 26.3851 21.1383C26.4209 21.0626 26.4583 20.9835 26.5 20.9C26.5155 20.8536 26.5333 20.8048 26.5525 20.7525C26.6571 20.4667 26.8 20.0762 26.8 19.4V12.6C26.7 11.8 26.6 11.4 26.5 11.1C26.4 10.7 26.2 10.4 25.9 10.1C25.6626 9.86261 25.4252 9.75045 25.1383 9.61488C25.0627 9.57918 24.9833 9.54167 24.9 9.5C24.8536 9.48453 24.8048 9.46666 24.7525 9.44752C24.4667 9.3429 24.0762 9.2 23.4 9.2ZM20 11.7C17.6 11.7 15.7 13.6 15.7 16C15.7 18.4 17.6 20.3 20 20.3C22.4 20.3 24.3 18.4 24.3 16C24.3 13.6 22.4 11.7 20 11.7ZM25.4 11.6C25.4 12.1523 24.9523 12.6 24.4 12.6C23.8477 12.6 23.4 12.1523 23.4 11.6C23.4 11.0477 23.8477 10.6 24.4 10.6C24.9523 10.6 25.4 11.0477 25.4 11.6Z" fill="#C0B7E8"/>
<path fill-rule="evenodd" clip-rule="evenodd" d="M4 16C4 7.16344 11.1634 0 20 0C28.8366 0 36 7.16344 36 16C36 24.8366 28.8366 32 20 32C11.1634 32 4 24.8366 4 16ZM16.6 7.7H23.4C24.3 7.8 24.9 7.9 25.4 8.1C26 8.4 26.4 8.6 26.9 9.1C27.4 9.6 27.7 10.1 27.9 10.6C28.1 11.1 28.3 11.7 28.3 12.6V19.4C28.2 20.3 28.1 20.9 27.9 21.4C27.6 22 27.4 22.4 26.9 22.9C26.4 23.4 25.9 23.7 25.4 23.9C24.9 24.1 24.3 24.3 23.4 24.3H16.6C15.7 24.2 15.1 24.1 14.6 23.9C14 23.6 13.6 23.4 13.1 22.9C12.6 22.4 12.3 21.9 12.1 21.4C11.9 20.9 11.7 20.3 11.7 19.4V12.6C11.8 11.7 11.9 11.1 12.1 10.6C12.4 10 12.6 9.6 13.1 9.1C13.6 8.6 14.1 8.3 14.6 8.1C15.1 7.9 15.7 7.7 16.6 7.7Z" fill="#C0B7E8"/>
</g>
<defs>
<filter id="filter0_d_13_56" x="0" y="0" width="40" height="40" filterUnits="userSpaceOnUse" color-interpolation-filters="sRGB">
<feFlood flood-opacity="0" result="BackgroundImageFix"/>
<feColorMatrix in="SourceAlpha" type="matrix" values="0 0 0 0 0 0 0 0 0 0 0 0 0 0 0 0 0 0 127 0" result="hardAlpha"/>
<feOffset dy="4"/>
<feGaussianBlur stdDeviation="2"/>
<feComposite in2="hardAlpha" operator="out"/>
<feColorMatrix type="matrix" values="0 0 0 0 0 0 0 0 0 0 0 0 0 0 0 0 0 0 0.25 0"/>
<feBlend mode="normal" in2="BackgroundImageFix" result="effect1_dropShadow_13_56"/>
<feBlend mode="normal" in="SourceGraphic" in2="effect1_dropShadow_13_56" result="shape"/>
</filter>
</defs>
</svg>
