<svg width="40" height="40" viewBox="0 0 40 40" fill="none" xmlns="http://www.w3.org/2000/svg">
<g filter="url(#filter0_d_13_55)">
<path fill-rule="evenodd" clip-rule="evenodd" d="M4 16C4 7.16344 11.1634 0 20 0C28.8366 0 36 7.16344 36 16C36 24.8366 28.8366 32 20 32C11.1634 32 4 24.8366 4 16ZM12 16C12 11.6 15.6 8 20 8C24.4 8 28 11.6 27.9 15.6C27.9 20 24.3 23.6 19.9 23.6C19.1 23.6 18.3 23.5 17.6 23.3C17.9 22.8 18.2 22.2 18.4 21.6C18.5 21.2 19 19.4 19 19.4C19.3 19.9 20.1 20.4 21 20.4C23.6 20.4 25.3 18 25.3 14.9C25.3 12.5 23.3 10.3 20.2 10.3C16.4 10.3 14.5 13 14.5 15.3C14.5 16.7 15 17.9 16.1 18.4C16.3 18.5 16.4 18.4 16.5 18.2C16.6 18.1 16.7 17.7 16.7 17.6C16.7707 17.4586 16.7414 17.4172 16.6828 17.3343C16.6586 17.3 16.6293 17.2586 16.6 17.2C16.3 16.8 16.1 16.3 16.1 15.6C16.1 13.6 17.6 11.8 20 11.8C22.1 11.8 23.3 13.1 23.3 14.9C23.3 17.3 22.3 19.2 20.8 19.2C19.9 19.2 19.3 18.5 19.5 17.7C19.5835 17.2826 19.7192 16.8477 19.8491 16.4318C20.0303 15.8514 20.2 15.3078 20.2 14.9C20.2 14.2 19.8 13.7 19.1 13.7C18.3 13.7 17.6 14.6 17.6 15.8C17.6 16.6 17.9 17.1 17.9 17.1C17.9 17.1 17.1 20.8 16.9 21.5C16.8 22.1 16.8 22.6999 16.8 23.2999C14 22.0999 12 19.3 12 16Z" fill="#C0B7E8"/>
</g>
<defs>
<filter id="filter0_d_13_55" x="0" y="0" width="40" height="40" filterUnits="userSpaceOnUse" color-interpolation-filters="sRGB">
<feFlood flood-opacity="0" result="BackgroundImageFix"/>
<feColorMatrix in="SourceAlpha" type="matrix" values="0 0 0 0 0 0 0 0 0 0 0 0 0 0 0 0 0 0 127 0" result="hardAlpha"/>
<feOffset dy="4"/>
<feGaussianBlur stdDeviation="2"/>
<feComposite in2="hardAlpha" operator="out"/>
<feColorMatrix type="matrix" values="0 0 0 0 0 0 0 0 0 0 0 0 0 0 0 0 0 0 0.25 0"/>
<feBlend mode="normal" in2="BackgroundImageFix" result="effect1_dropShadow_13_55"/>
<feBlend mode="normal" in="SourceGraphic" in2="effect1_dropShadow_13_55" result="shape"/>
</filter>
</defs>
</svg>
