<svg width="40" height="40" viewBox="0 0 40 40" fill="none" xmlns="http://www.w3.org/2000/svg">
<g filter="url(#filter0_d_13_60)">
<path fill-rule="evenodd" clip-rule="evenodd" d="M4 16C4 7.16344 11.1634 0 20 0C28.8366 0 36 7.16344 36 16C36 24.8366 28.8366 32 20 32C11.1634 32 4 24.8366 4 16ZM26.1 11.5C26.8 11.4 27.4 11.3 28 11C27.6 11.7 27 12.3 26.3 12.7C26.5 17.4 23.1 22.5 17 22.5C15.2 22.5 13.5 21.9 12 21C13.7 21.2 15.5 20.7 16.7 19.8C15.2 19.8 14 18.8 13.6 17.5C14.1 17.6 14.6 17.5 15.1 17.4C13.6 17 12.5 15.6 12.5 14.1C13 14.3 13.5 14.5 14 14.5C12.6 13.5 12.1 11.6 13 10.1C14.7 12.1 17.1 13.4 19.8 13.5C19.3 11.5 20.9 9.5 23 9.5C23.9 9.5 24.8 9.9 25.4 10.5C26.2 10.3 26.9 10.1 27.5 9.7C27.3 10.5 26.8 11.1 26.1 11.5Z" fill="#C0B7E8"/>
</g>
<defs>
<filter id="filter0_d_13_60" x="0" y="0" width="40" height="40" filterUnits="userSpaceOnUse" color-interpolation-filters="sRGB">
<feFlood flood-opacity="0" result="BackgroundImageFix"/>
<feColorMatrix in="SourceAlpha" type="matrix" values="0 0 0 0 0 0 0 0 0 0 0 0 0 0 0 0 0 0 127 0" result="hardAlpha"/>
<feOffset dy="4"/>
<feGaussianBlur stdDeviation="2"/>
<feComposite in2="hardAlpha" operator="out"/>
<feColorMatrix type="matrix" values="0 0 0 0 0 0 0 0 0 0 0 0 0 0 0 0 0 0 0.25 0"/>
<feBlend mode="normal" in2="BackgroundImageFix" result="effect1_dropShadow_13_60"/>
<feBlend mode="normal" in="SourceGraphic" in2="effect1_dropShadow_13_60" result="shape"/>
</filter>
</defs>
</svg>
