<svg width="40" height="40" viewBox="0 0 40 40" fill="none" xmlns="http://www.w3.org/2000/svg">
<g filter="url(#filter0_d_13_59)">
<path d="M22.6 16L18.4 13.6V18.4L22.6 16Z" fill="#C0B7E8"/>
<path fill-rule="evenodd" clip-rule="evenodd" d="M4 16C4 7.16344 11.1634 0 20 0C28.8366 0 36 7.16344 36 16C36 24.8366 28.8366 32 20 32C11.1634 32 4 24.8366 4 16ZM26.2 10.7C26.9 10.9 27.4 11.4 27.6 12.1C28 13.4 28 16 28 16C28 16 28 18.6 27.7 19.9C27.5 20.6 27 21.1 26.3 21.3C25 21.6 20 21.6 20 21.6C20 21.6 14.9 21.6 13.7 21.3C13 21.1 12.5 20.6 12.3 19.9C12 18.6 12 16 12 16C12 16 12 13.4 12.2 12.1C12.4 11.4 12.9 10.9 13.6 10.7C14.9 10.4 19.9 10.4 19.9 10.4C19.9 10.4 25 10.4 26.2 10.7Z" fill="#C0B7E8"/>
</g>
<defs>
<filter id="filter0_d_13_59" x="0" y="0" width="40" height="40" filterUnits="userSpaceOnUse" color-interpolation-filters="sRGB">
<feFlood flood-opacity="0" result="BackgroundImageFix"/>
<feColorMatrix in="SourceAlpha" type="matrix" values="0 0 0 0 0 0 0 0 0 0 0 0 0 0 0 0 0 0 127 0" result="hardAlpha"/>
<feOffset dy="4"/>
<feGaussianBlur stdDeviation="2"/>
<feComposite in2="hardAlpha" operator="out"/>
<feColorMatrix type="matrix" values="0 0 0 0 0 0 0 0 0 0 0 0 0 0 0 0 0 0 0.25 0"/>
<feBlend mode="normal" in2="BackgroundImageFix" result="effect1_dropShadow_13_59"/>
<feBlend mode="normal" in="SourceGraphic" in2="effect1_dropShadow_13_59" result="shape"/>
</filter>
</defs>
</svg>
